<?xml version="1.0" standalone="no"?>
<!DOCTYPE svg PUBLIC "-//W3C//DTD SVG 20010904//EN"
 "http://www.w3.org/TR/2001/REC-SVG-20010904/DTD/svg10.dtd">
<svg version="1.0" xmlns="http://www.w3.org/2000/svg"
 width="512.000000pt" height="512.000000pt" viewBox="0 0 512.000000 512.000000"
 preserveAspectRatio="xMidYMid meet">
<metadata>
Created by potrace 1.14, written by Peter Selinger 2001-2017
</metadata>
<g transform="translate(0.000000,512.000000) scale(0.100000,-0.100000)"
fill="#000000" stroke="none">
<path d="M1343 3873 l-1343 -1245 0 -1314 0 -1314 2560 0 2560 0 0 2560 0
2560 -1217 0 -1218 -1 -1342 -1246z m2615 -175 c2 -204 1 -226 -15 -240 -10
-8 -132 -45 -271 -83 -244 -65 -253 -67 -272 -50 -19 17 -20 32 -20 235 0 158
3 221 13 232 7 10 110 44 267 86 218 60 258 68 275 57 19 -12 20 -25 23 -237z
m-828 3 c6 -12 10 -106 10 -235 0 -170 -3 -217 -14 -228 -8 -8 -102 -38 -210
-68 -162 -44 -198 -51 -211 -40 -13 11 -15 46 -13 249 l3 236 185 52 c209 58
235 62 250 34z m-702 -183 c17 -17 17 -448 0 -470 -19 -23 -397 -124 -417
-111 -14 9 -16 42 -18 239 -2 126 1 234 5 241 8 13 350 111 393 112 14 1 30
-4 37 -11z m-700 -190 c17 -17 17 -461 -1 -476 -6 -6 -59 -23 -116 -38 -57
-15 -110 -34 -117 -42 -19 -18 -21 -561 -2 -580 9 -9 81 -12 263 -12 182 0
254 3 263 12 17 17 17 329 0 346 -8 8 -47 12 -109 12 -99 0 -125 9 -98 35 8 7
240 74 516 149 l502 136 546 0 c358 0 553 -4 566 -10 19 -10 19 -30 19 -835 0
-735 -2 -825 -16 -839 -14 -14 -153 -16 -1384 -16 l-1369 0 -15 22 c-14 20
-16 132 -16 1003 0 770 3 985 13 997 12 17 467 146 518 147 14 1 30 -4 37 -11z"/>
<path d="M2102 2538 c-18 -18 -17 -332 2 -347 9 -8 140 -10 467 -9 l454 3 0
180 0 180 -455 3 c-346 2 -459 -1 -468 -10z"/>
<path d="M3104 2537 c-2 -7 -3 -89 -2 -182 l3 -170 265 0 265 0 0 180 0 180
-263 3 c-208 2 -264 0 -268 -11z"/>
<path d="M1575 2113 c-47 -3 -82 -9 -87 -16 -4 -7 -8 -87 -8 -178 0 -128 3
-169 14 -178 10 -8 299 -10 1077 -9 l1064 3 3 179 c2 123 -1 183 -9 192 -10
12 -169 14 -993 12 -539 -1 -1017 -4 -1061 -5z"/>
<path d="M1492 1648 c-13 -13 -16 -126 -4 -144 5 -8 309 -13 1064 -17 870 -4
1060 -3 1075 8 15 11 17 25 15 81 -2 37 -5 72 -8 76 -3 4 -483 8 -1068 8 -813
0 -1065 -3 -1074 -12z"/>
</g>
</svg>
