<?xml version="1.0" standalone="no"?>
<!DOCTYPE svg PUBLIC "-//W3C//DTD SVG 20010904//EN"
 "http://www.w3.org/TR/2001/REC-SVG-20010904/DTD/svg10.dtd">
<svg version="1.0" xmlns="http://www.w3.org/2000/svg"
 width="1024.000000pt" height="1024.000000pt" viewBox="0 0 1024.000000 1024.000000"
 preserveAspectRatio="xMidYMid meet">
<metadata>
Created by potrace 1.14, written by Peter Selinger 2001-2017
</metadata>
<g transform="translate(0.000000,1024.000000) scale(0.100000,-0.100000)"
fill="#000000" stroke="none">
<path d="M7340 7764 c-250 -68 -472 -129 -493 -135 -21 -5 -47 -19 -58 -30
-18 -18 -19 -36 -19 -473 l0 -455 26 -20 c15 -12 36 -21 48 -21 12 0 246 61
521 136 363 98 506 141 523 156 l22 21 0 447 c0 437 0 448 -21 474 -16 20 -29
26 -57 25 -20 0 -242 -56 -492 -125z"/>
<path d="M5795 7344 c-326 -89 -383 -107 -402 -129 l-23 -26 0 -434 c0 -297 4
-442 11 -458 11 -24 46 -47 72 -47 7 0 181 45 387 101 259 70 382 108 398 122
l22 20 0 452 c0 440 0 452 -20 473 -12 12 -25 22 -30 22 -4 0 -14 2 -22 4 -7
3 -184 -42 -393 -100z"/>
<path d="M4400 6964 c-298 -80 -389 -109 -402 -125 -17 -20 -18 -57 -18 -471
l0 -449 25 -24 c13 -14 33 -25 44 -25 15 0 517 133 738 196 86 24 83 6 83 508
l0 435 -22 25 c-13 13 -32 27 -43 30 -11 2 -193 -42 -405 -100z"/>
<path d="M2875 6550 c-404 -111 -514 -144 -527 -161 -17 -20 -18 -131 -18
-2008 l0 -1988 23 -21 23 -22 1300 -1 c714 -1 1836 -5 2493 -8 l1193 -6 -1256
-1165 -1256 -1165 2691 -3 c1481 -1 2694 -1 2696 1 2 2 2 1127 1 2500 l-3
2497 -1155 -1072 -1155 -1071 -6 514 c-3 283 -7 922 -8 1420 l-1 906 -23 21
-23 22 -1109 0 -1109 0 -995 -271 c-548 -148 -1004 -272 -1014 -275 -9 -3 -22
-15 -28 -27 -10 -17 -8 -24 11 -39 20 -16 43 -18 206 -18 176 0 184 -1 204
-22 19 -21 20 -34 20 -350 l0 -329 -25 -24 -24 -25 -495 0 -495 0 -28 24 -28
24 0 565 c0 528 1 566 18 585 12 13 86 38 234 78 119 32 226 67 239 77 l24 18
0 455 c0 441 -1 455 -20 474 -11 11 -24 20 -29 20 -5 0 -15 2 -23 4 -7 3 -242
-58 -523 -134z m3164 -1459 c11 -11 23 -35 26 -53 3 -18 5 -167 3 -331 l-3
-299 -28 -24 -28 -24 -889 0 -889 0 -28 24 -28 24 0 332 0 332 24 19 c22 18
52 19 922 19 877 0 899 0 918 -19z m1221 -1 c19 -19 20 -33 20 -354 l0 -335
-26 -20 c-26 -21 -36 -21 -521 -21 l-494 0 -24 25 -25 24 0 327 c0 323 0 328
22 351 l21 23 504 0 c490 0 504 -1 523 -20z m1 -879 c18 -22 19 -43 19 -364 0
-336 0 -341 -22 -364 l-21 -23 -2119 0 c-2105 0 -2118 0 -2138 20 -19 19 -20
33 -20 369 l0 350 26 20 27 21 2114 -2 2115 -3 19 -24z m-4 -903 c22 -20 23
-28 23 -153 0 -118 -2 -133 -20 -153 l-21 -22 -2047 -2 c-1126 -2 -2080 -3
-2121 -2 -107 0 -111 7 -111 180 0 121 2 136 20 154 20 20 33 20 2137 20
l2117 0 23 -22z"/>
</g>
</svg>
